<mxfile host="Electron" agent="Mozilla/5.0 (Windows NT 10.0; Win64; x64) AppleWebKit/537.36 (KHTML, like Gecko) draw.io/24.7.8 Chrome/128.0.6613.36 Electron/32.0.1 Safari/537.36" version="24.7.8">
  <diagram name="Page-1" id="mwgIgRp1CF-K9CDWwT5y">
    <mxGraphModel dx="1020" dy="504" grid="1" gridSize="10" guides="1" tooltips="1" connect="1" arrows="1" fold="1" page="1" pageScale="1" pageWidth="850" pageHeight="1100" math="0" shadow="0">
      <root>
        <mxCell id="0" />
        <mxCell id="1" parent="0" />
        <mxCell id="4reEDeVMpNPPszDmCzIw-1" value="" style="whiteSpace=wrap;html=1;aspect=fixed;" vertex="1" parent="1">
          <mxGeometry x="220" y="80" width="500" height="500" as="geometry" />
        </mxCell>
        <mxCell id="4reEDeVMpNPPszDmCzIw-2" value="Dr.Kaketo" style="shape=umlActor;verticalLabelPosition=bottom;verticalAlign=top;html=1;outlineConnect=0;" vertex="1" parent="1">
          <mxGeometry x="100" y="110" width="30" height="60" as="geometry" />
        </mxCell>
        <mxCell id="4reEDeVMpNPPszDmCzIw-3" value="Ushering team&amp;nbsp;" style="shape=umlActor;verticalLabelPosition=bottom;verticalAlign=top;html=1;outlineConnect=0;" vertex="1" parent="1">
          <mxGeometry x="110" y="342.5" width="30" height="60" as="geometry" />
        </mxCell>
        <mxCell id="4reEDeVMpNPPszDmCzIw-13" value="Events and Records Teams&amp;nbsp;" style="shape=umlActor;verticalLabelPosition=bottom;verticalAlign=top;html=1;outlineConnect=0;" vertex="1" parent="1">
          <mxGeometry x="100" y="220" width="30" height="60" as="geometry" />
        </mxCell>
        <mxCell id="4reEDeVMpNPPszDmCzIw-18" value="Manages the Exibition" style="ellipse;html=1;whiteSpace=wrap;" vertex="1" parent="1">
          <mxGeometry x="385" y="150" width="160" height="35" as="geometry" />
        </mxCell>
        <mxCell id="4reEDeVMpNPPszDmCzIw-28" value="Issue Tickets" style="ellipse;html=1;whiteSpace=wrap;" vertex="1" parent="1">
          <mxGeometry x="385" y="222.5" width="160" height="35" as="geometry" />
        </mxCell>
        <mxCell id="4reEDeVMpNPPszDmCzIw-29" value="Track Attendence" style="ellipse;html=1;whiteSpace=wrap;" vertex="1" parent="1">
          <mxGeometry x="385" y="290" width="160" height="35" as="geometry" />
        </mxCell>
        <mxCell id="4reEDeVMpNPPszDmCzIw-30" value="Manage Guest list" style="ellipse;html=1;whiteSpace=wrap;" vertex="1" parent="1">
          <mxGeometry x="250" y="365" width="160" height="35" as="geometry" />
        </mxCell>
        <mxCell id="4reEDeVMpNPPszDmCzIw-31" value="Generate Reports" style="ellipse;html=1;whiteSpace=wrap;" vertex="1" parent="1">
          <mxGeometry x="440" y="380" width="160" height="35" as="geometry" />
        </mxCell>
        <mxCell id="4reEDeVMpNPPszDmCzIw-33" value="Attenedance" style="ellipse;html=1;whiteSpace=wrap;" vertex="1" parent="1">
          <mxGeometry x="520" y="500" width="160" height="35" as="geometry" />
        </mxCell>
        <mxCell id="4reEDeVMpNPPszDmCzIw-36" value="&lt;b&gt;Usecase Diagram&amp;nbsp; for the Exhibition Ticketing and Attendance Management System&lt;/b&gt;" style="text;html=1;align=center;verticalAlign=middle;whiteSpace=wrap;rounded=0;" vertex="1" parent="1">
          <mxGeometry x="285" y="90" width="360" height="30" as="geometry" />
        </mxCell>
        <mxCell id="4reEDeVMpNPPszDmCzIw-38" value="" style="endArrow=classic;html=1;rounded=0;entryX=0;entryY=0.5;entryDx=0;entryDy=0;exitX=0.5;exitY=0.5;exitDx=0;exitDy=0;exitPerimeter=0;" edge="1" parent="1" source="4reEDeVMpNPPszDmCzIw-2" target="4reEDeVMpNPPszDmCzIw-18">
          <mxGeometry width="50" height="50" relative="1" as="geometry">
            <mxPoint x="400" y="320" as="sourcePoint" />
            <mxPoint x="450" y="270" as="targetPoint" />
          </mxGeometry>
        </mxCell>
        <mxCell id="4reEDeVMpNPPszDmCzIw-40" value="Industry Parnters" style="shape=umlActor;verticalLabelPosition=bottom;verticalAlign=top;html=1;outlineConnect=0;" vertex="1" parent="1">
          <mxGeometry x="780" y="220" width="30" height="60" as="geometry" />
        </mxCell>
        <mxCell id="4reEDeVMpNPPszDmCzIw-42" value="Guest" style="shape=umlActor;verticalLabelPosition=bottom;verticalAlign=top;html=1;outlineConnect=0;" vertex="1" parent="1">
          <mxGeometry x="780" y="100" width="30" height="60" as="geometry" />
        </mxCell>
        <mxCell id="4reEDeVMpNPPszDmCzIw-45" value="Students" style="shape=umlActor;verticalLabelPosition=bottom;verticalAlign=top;html=1;outlineConnect=0;" vertex="1" parent="1">
          <mxGeometry x="780" y="340" width="30" height="60" as="geometry" />
        </mxCell>
        <mxCell id="4reEDeVMpNPPszDmCzIw-48" value="" style="endArrow=classic;html=1;rounded=0;exitX=0.5;exitY=0.5;exitDx=0;exitDy=0;exitPerimeter=0;entryX=0;entryY=0.5;entryDx=0;entryDy=0;" edge="1" parent="1" source="4reEDeVMpNPPszDmCzIw-13" target="4reEDeVMpNPPszDmCzIw-28">
          <mxGeometry width="50" height="50" relative="1" as="geometry">
            <mxPoint x="400" y="320" as="sourcePoint" />
            <mxPoint x="450" y="270" as="targetPoint" />
          </mxGeometry>
        </mxCell>
        <mxCell id="4reEDeVMpNPPszDmCzIw-49" value="" style="endArrow=classic;html=1;rounded=0;entryX=0;entryY=0.5;entryDx=0;entryDy=0;" edge="1" parent="1" source="4reEDeVMpNPPszDmCzIw-13" target="4reEDeVMpNPPszDmCzIw-29">
          <mxGeometry width="50" height="50" relative="1" as="geometry">
            <mxPoint x="400" y="320" as="sourcePoint" />
            <mxPoint x="450" y="270" as="targetPoint" />
          </mxGeometry>
        </mxCell>
        <mxCell id="4reEDeVMpNPPszDmCzIw-51" value="" style="endArrow=classic;html=1;rounded=0;" edge="1" parent="1" source="4reEDeVMpNPPszDmCzIw-3" target="4reEDeVMpNPPszDmCzIw-30">
          <mxGeometry width="50" height="50" relative="1" as="geometry">
            <mxPoint x="400" y="320" as="sourcePoint" />
            <mxPoint x="450" y="270" as="targetPoint" />
          </mxGeometry>
        </mxCell>
        <mxCell id="4reEDeVMpNPPszDmCzIw-52" value="" style="endArrow=classic;html=1;rounded=0;entryX=0.5;entryY=0.6;entryDx=0;entryDy=0;entryPerimeter=0;" edge="1" parent="1" source="4reEDeVMpNPPszDmCzIw-13" target="4reEDeVMpNPPszDmCzIw-1">
          <mxGeometry width="50" height="50" relative="1" as="geometry">
            <mxPoint x="400" y="320" as="sourcePoint" />
            <mxPoint x="450" y="270" as="targetPoint" />
          </mxGeometry>
        </mxCell>
        <mxCell id="4reEDeVMpNPPszDmCzIw-53" value="" style="endArrow=classic;html=1;rounded=0;entryX=0.713;entryY=0.01;entryDx=0;entryDy=0;entryPerimeter=0;" edge="1" parent="1" source="4reEDeVMpNPPszDmCzIw-42" target="4reEDeVMpNPPszDmCzIw-33">
          <mxGeometry width="50" height="50" relative="1" as="geometry">
            <mxPoint x="400" y="320" as="sourcePoint" />
            <mxPoint x="450" y="270" as="targetPoint" />
          </mxGeometry>
        </mxCell>
        <mxCell id="4reEDeVMpNPPszDmCzIw-54" value="" style="endArrow=classic;html=1;rounded=0;entryX=0.713;entryY=0.01;entryDx=0;entryDy=0;entryPerimeter=0;exitX=0;exitY=0.3333333333333333;exitDx=0;exitDy=0;exitPerimeter=0;" edge="1" parent="1" source="4reEDeVMpNPPszDmCzIw-40">
          <mxGeometry width="50" height="50" relative="1" as="geometry">
            <mxPoint x="792" y="170" as="sourcePoint" />
            <mxPoint x="644" y="510" as="targetPoint" />
          </mxGeometry>
        </mxCell>
        <mxCell id="4reEDeVMpNPPszDmCzIw-55" value="" style="endArrow=classic;html=1;rounded=0;entryX=0.958;entryY=0.429;entryDx=0;entryDy=0;entryPerimeter=0;" edge="1" parent="1" source="4reEDeVMpNPPszDmCzIw-45" target="4reEDeVMpNPPszDmCzIw-33">
          <mxGeometry width="50" height="50" relative="1" as="geometry">
            <mxPoint x="400" y="320" as="sourcePoint" />
            <mxPoint x="450" y="270" as="targetPoint" />
          </mxGeometry>
        </mxCell>
      </root>
    </mxGraphModel>
  </diagram>
</mxfile>
